# xmcd CD database file
#
# Track frame offsets:
#	150
#	37982
#	62600
#	102392
#	129742
#	139985
#	151887
#	170965
#	182017
#	206415
#	220445
#	224815
#
# Disc length: 3169 seconds
#
# Revision: 0
# Processed by: cddbd v1.5.1PL0 Copyright (c) Steve Scherf et al.
# Submitted via: CDex 1.51
#
DISCID=c00c5f0c
DTITLE=島　健 - BLUE IN GREEN
DYEAR=1900
DGENRE=Jazz
TTITLE0=WINDOWS
TTITLE1=BLUE IN GREEN
TTITLE2=NAIMA
TTITLE3=ELM
TTITLE4=SUITE FOR PIAZZORA PART I
TTITLE5=SUITE FOR PIAZZORA PART II
TTITLE6=SUITE FOR PIAZZORA PART III
TTITLE7=SUITE FOR PIAZZORA PART IV
TTITLE8=QUIET NOW
TTITLE9=CAVATINA
TTITLE10=INTERLUDE
TTITLE11=COSMIC LAKE
EXTD=
EXTT0=
EXTT1=
EXTT2=
EXTT3=
EXTT4=
EXTT5=
EXTT6=
EXTT7=
EXTT8=
EXTT9=
EXTT10=
EXTT11=
PLAYORDER=
